<?xml version="1.0" encoding="utf-8"?>
<!-- Generator: Adobe Illustrator 25.4.1, SVG Export Plug-In . SVG Version: 6.00 Build 0)  -->
<svg version="1.1" id="Capa_1" xmlns="http://www.w3.org/2000/svg"
	xmlns:xlink="http://www.w3.org/1999/xlink" x="0px" y="0px"
	viewBox="0 0 98 100" style="enable-background:new 0 0 98 100;" xml:space="preserve">
<style type="text/css">
	.st0{fill-rule:evenodd;clip-rule:evenodd;fill:#949292;}
	.st1{fill-rule:evenodd;clip-rule:evenodd;fill:#C32A2E;}
	.st2{fill-rule:evenodd;clip-rule:evenodd;fill:#2A285F;}
	.st3{fill-rule:evenodd;clip-rule:evenodd;fill:#B4B2B4;}
	.st4{fill-rule:evenodd;clip-rule:evenodd;fill:#29285F;}
</style>
<g>
	<path class="st0" d="M75.76,59.09c0.02-0.04-0.07-0.44-0.28-1.21c-1.98-2.36-4.5-4.88-7.53-7.55c-0.08,0.89-0.21,1.77-0.39,2.66
		l0.07-0.07l6.08,3.51l-1.95,2.98c1.21,0.35,2.17,0.53,2.91,0.53c0.56-0.01,0.9-0.11,1.03-0.28C75.79,59.53,75.81,59.34,75.76,59.09
		"/>
	<path class="st0" d="M31.14,28.14c-0.89-0.31-1.74-0.57-2.57-0.8c-0.27,0.02-0.52,0.06-0.75,0.11c-0.13-0.04-0.37,0.15-0.73,0.57
		c-0.25,0.26,0.08,1.07,0.97,2.43C29.05,29.61,30.08,28.84,31.14,28.14"/>
	<path class="st0" d="M54.21,39.96c-3.22-2.1-6.38-3.99-9.46-5.67c-2.46,0.82-4.73,2.08-6.82,3.79c3.05,1.54,6.21,3.31,9.48,5.32
		l1.44-2.39l6.54,4.13c0.19-1.48,0.24-2.91,0.14-4.29C55.09,40.55,54.65,40.26,54.21,39.96"/>
	<path class="st1" d="M66.81,53.47c1.06-5.05,0.77-9.86-0.89-14.44c-1.65-4.57-4.58-8.25-8.79-11.04c-2.68-1.7-5.53-2.77-8.54-3.21
		c-3.01-0.45-6.02-0.32-9.02,0.39c3.32-0.18,6.4,0.61,9.25,2.38c2.97,1.96,5.05,4.62,6.24,7.98c1.2,3.34,1.46,6.95,0.78,10.83
		L51,43.24l6.13,13.81l14.69-0.59L66.81,53.47"/>
	<path class="st2" d="M61.12,72.34L55.67,58.8L40.6,59.49l4.84,3.1c-3.22,2.24-6.6,3.53-10.14,3.85c-3.54,0.32-6.84-0.46-9.87-2.34
		c-2.79-1.84-4.8-4.31-6.03-7.39c0.61,3.03,1.75,5.81,3.42,8.35c1.67,2.55,3.83,4.69,6.5,6.42c4.3,2.66,8.88,3.79,13.73,3.4
		c4.86-0.38,9.35-2.1,13.49-5.17L61.12,72.34"/>
	<path class="st3" d="M31.6,34.36c1.38,1.32,2.98,2.72,4.8,4.2c2.4-2.24,5.06-3.86,7.98-4.84c2.91-0.97,5.83-1.24,8.77-0.82
		c-1.18-1.97-2.74-3.59-4.68-4.84c-2.39-1.52-5.06-2.29-8.03-2.29c-0.27,0-0.55,0.01-0.83,0.02l-2.62,0.14
		c-3.1,1.09-5.94,2.75-8.54,5C29.12,31.84,30.17,32.98,31.6,34.36"/>
	<path class="st3" d="M30.71,46.93c-3.17-2.71-5.85-5.31-8.05-7.82c-0.13-0.14-0.27-0.29-0.41-0.46
		c-2.66,5.05-3.74,10.17-3.24,15.38l0.99,2.43c1.24,3.05,3.17,5.42,5.78,7.11c1.93,1.22,4.04,1.94,6.34,2.18
		c-1.74-2.66-2.73-5.63-2.99-8.91C28.87,53.54,29.4,50.24,30.71,46.93"/>
	<path class="st4" d="M55.01,57.14l-5.94-14.75l-2.85,4.22c-6.37-4.32-11.39-8.25-15.06-11.79c-3.67-3.52-5.21-5.91-4.61-7.16
		c0.21-0.32,0.6-0.51,1.15-0.57c-4.82-1.22-7.89-0.96-9.2,0.78c-1.22,2.27,0.33,5.87,4.64,10.81c4.32,4.94,10.46,10.17,18.41,15.68
		l-2.02,3.37L55.01,57.14"/>
	<path class="st1" d="M76.35,58.94c0.11,0.42,0.08,0.77-0.09,1.05c-0.71,0.9-2.6,0.89-5.67-0.02l1.31-1.93l-14.04,0.66l5.51,12.41
		l2.46-3.77c3.53,1.26,6.49,1.97,8.88,2.11c2.39,0.13,3.98-0.37,4.77-1.51C80.57,65.99,79.53,63,76.35,58.94"/>
</g>
</svg>